<svg id="_x31__px" height="512" viewBox="0 0 24 24" width="512" xmlns="http://www.w3.org/2000/svg"><g><path d="m12 17.999c-1.096 0-2.191-.271-3.28-.814-.438-.219-.72-.684-.72-1.185 0-2.206 1.794-4 4-4s4 1.794 4 4c0 .501-.282.966-.72 1.185-1.089.543-2.184.814-3.28.814zm-2.833-1.709c1.906.951 3.76.951 5.666 0 .1-.05.167-.166.167-.29 0-1.654-1.346-3-3-3s-3 1.346-3 3c0 .123.067.24.167.29z"/></g><g><path d="m10.254 10.972c-.186 0-.374-.051-.552-.151-.522-.294-.94-1.005-1.117-1.9-.233-1.188 0-2.561.897-2.887.288-.105.608-.074.899.09.522.295.939 1.005 1.115 1.9.229 1.158-.008 2.563-.896 2.887-.112.04-.228.061-.346.061zm-.364-3.977c-.229.038-.522.726-.325 1.732.133.672.419 1.105.628 1.223.229-.039.521-.727.323-1.732-.132-.673-.417-1.106-.626-1.223z"/></g><g><path d="m13.829 10.972c-.118 0-.234-.021-.347-.062-.898-.326-1.132-1.699-.897-2.886.177-.896.594-1.606 1.117-1.9.291-.163.611-.195.898-.09.898.327 1.131 1.7.896 2.887-.176.895-.593 1.605-1.116 1.9-.176.1-.365.151-.551.151zm-.264-2.755c-.197 1.006.095 1.694.259 1.753.274-.139.56-.571.692-1.243.198-1.006-.095-1.694-.258-1.754-.274.139-.56.572-.693 1.244z"/></g><g><path d="m6.744 13c-.227 0-.463-.057-.693-.171-.393-.194-.746-.539-.995-.97-.561-.972-.43-2.062.299-2.482.728-.418 1.736.011 2.299.982.561.972.43 2.062-.299 2.482-.185.105-.393.159-.611.159zm-.823-1.642c.149.259.358.468.573.574.145.072.279.089.36.042.177-.102.238-.587-.066-1.116-.306-.529-.76-.718-.934-.616-.176.102-.238.587.067 1.116z"/></g><g><path d="m17.256 13c-.218 0-.426-.053-.61-.16-.729-.421-.859-1.511-.299-2.482.562-.971 1.572-1.403 2.299-.982.729.421.859 1.511.299 2.482-.249.432-.603.776-.995.97-.231.114-.468.172-.694.172zm.776-2.785c-.214 0-.567.205-.82.643-.305.528-.243 1.013-.066 1.115.081.047.216.03.36-.042.215-.106.424-.315.573-.574.305-.529.243-1.014.066-1.116-.03-.017-.068-.026-.113-.026zm.48 1.393h.01z"/></g><g><path d="m.77 15c-.229 0-.436-.158-.488-.391-.187-.832-.282-1.71-.282-2.609 0-6.617 5.383-12 12-12 3.8 0 7.408 1.83 9.653 4.895.163.223.115.536-.107.699-.225.163-.537.115-.699-.108-2.058-2.809-5.365-4.486-8.847-4.486-6.065 0-11 4.935-11 11 0 .826.087 1.63.258 2.391.061.27-.109.537-.379.598-.037.007-.073.011-.109.011z"/></g><g><path d="m12 24c-3.801 0-7.409-1.83-9.653-4.896-.163-.223-.115-.535.108-.698.222-.164.534-.115.698.108 2.057 2.809 5.365 4.486 8.847 4.486 6.065 0 11-4.935 11-11 0-.839-.09-1.641-.267-2.384-.064-.269.102-.538.37-.602.271-.066.538.102.603.371.195.818.294 1.698.294 2.615 0 6.617-5.383 12-12 12z"/></g><g><path d="m2.55 22c-.272 0-.495-.219-.5-.492l-.05-3c-.002-.134.05-.263.144-.358s.222-.15.356-.15h3c.276 0 .5.224.5.5s-.224.5-.5.5h-2.491l.041 2.492c.005.276-.216.503-.492.508-.002 0-.005 0-.008 0z"/></g><g><path d="m21.5 6h-3c-.276 0-.5-.224-.5-.5s.224-.5.5-.5h2.5v-2.5c0-.276.224-.5.5-.5s.5.224.5.5v3c0 .276-.224.5-.5.5z"/></g></svg>